<svg id="visual" viewBox="0 0 1400 1" width="1400" height="1" xmlns="http://www.w3.org/2000/svg" xmlns:xlink="http://www.w3.org/1999/xlink" version="1.1"><rect x="0" y="0" width="1400" height="1" fill="#d1d5db"></rect><path d="M0 0L33.3 0C66.7 0 133.3 0 200 0C266.7 0 333.3 0 400 0C466.7 0 533.3 0 600 0C666.7 0 733.3 0 800 0C866.7 0 933.3 0 1000 0C1066.7 0 1133.3 0 1200 0C1266.7 0 1333.3 0 1366.7 0L1400 0L1400 2L1366.7 2C1333.3 2 1266.7 2 1200 2C1133.3 2 1066.7 2 1000 2C933.3 2 866.7 2 800 2C733.3 2 666.7 2 600 2C533.3 2 466.7 2 400 2C333.3 2 266.7 2 200 2C133.3 2 66.7 2 33.3 2L0 2Z" fill="#d1d5db" stroke-linecap="round" stroke-linejoin="miter"></path></svg>